<?xml version="1.0" encoding="UTF-8"?>
<!DOCTYPE svg PUBLIC "-//W3C//DTD SVG 1.1//EN" "http://www.w3.org/Graphics/SVG/1.1/DTD/svg11.dtd">
<!-- Creator: CorelDRAW X6 -->
<svg xmlns="http://www.w3.org/2000/svg" xml:space="preserve" version="1.1" style="shape-rendering:geometricPrecision; text-rendering:geometricPrecision; image-rendering:optimizeQuality; fill-rule:evenodd; clip-rule:evenodd"
viewBox="0 0 6250 6528"
 xmlns:xlink="http://www.w3.org/1999/xlink">
 <defs>
  <style type="text/css">
   <![CDATA[
    .fil0 {fill:#FEFEFE;fill-rule:nonzero}
    .fil61 {fill:url(#id5)}
    .fil59 {fill:url(#id9)}
    .fil60 {fill:url(#id14)}
    .fil62 {fill:url(#id16)}
   ]]>
  </style>
  <linearGradient id="id0" gradientUnits="userSpaceOnUse" x1="586.697" y1="5208.48" x2="614.531" y2="5473.33">
   <stop offset="0" style="stop-color:#212123"/>
   <stop offset="1" style="stop-color:#FEFEFE"/>
  </linearGradient>
  <linearGradient id="id5" gradientUnits="userSpaceOnUse" xlink:href="#id0" x1="3318.09" y1="1299.17" x2="3341.46" y2="1745.2">
  </linearGradient>
  <linearGradient id="id9" gradientUnits="userSpaceOnUse" xlink:href="#id0" x1="2602.25" y1="1247.61" x2="2651.2" y2="1713.33">
  </linearGradient>
  <linearGradient id="id14" gradientUnits="userSpaceOnUse" xlink:href="#id0" x1="2688.22" y1="1567.09" x2="2703.66" y2="1714.01">
  </linearGradient>
  <linearGradient id="id16" gradientUnits="userSpaceOnUse" xlink:href="#id0" x1="3344.78" y1="1502.52" x2="3357.6" y2="1747.32">
  </linearGradient>
 </defs>
 <g id="Layer_x0020_1">
  <metadata id="CorelCorpID_0Corel-Layer"/>
  <polygon class="fil0" points="0,6528 6250,6528 6250,0 0,0 "/>
  <path class="fil59" d="M2353 1489c-12,9 -23,22 -27,30 5,1 11,-1 14,-4 7,-7 7,-13 13,-26l0 0zm-45 76c-12,-10 -18,-25 6,-46 9,-15 20,-27 32,-36 43,-35 89,-42 131,-54 57,-16 122,-76 174,-111 93,-64 203,-69 313,-11 -34,-10 -60,-14 -78,-14 -121,0 -219,94 -219,209 0,104 80,191 185,207 -95,4 -202,-43 -280,-104 -72,-57 -189,-109 -265,-39l0 0z"/>
  <path class="fil60" d="M2679 1569c26,73 92,128 173,140 -95,4 -202,-43 -280,-104 -10,-8 -21,-16 -33,-23 46,-4 93,-8 140,-12l0 0z"/>
  <path class="fil61" d="M3381 1562c10,11 23,18 40,18 28,0 45,-17 54,-41 9,-25 9,-53 -1,-77 -9,-23 -26,-38 -53,-38 -31,0 -49,21 -57,50 -4,16 -9,61 16,89l0 0zm274 76l-66 0 0 -337 66 0 0 337zm-784 -213c31,0 49,21 57,50l-113 0c7,-28 26,-50 57,-50l0 0zm0 -57c-169,0 -169,270 0,270 60,0 99,-34 116,-78l-73 0c-10,13 -24,22 -44,22 -31,0 -49,-21 -57,-50 60,0 121,0 181,0 14,-75 -28,-163 -124,-163l0 0zm326 149c-31,0 -102,-3 -102,39 0,21 22,27 40,27 24,0 48,-9 62,-28l0 -39zm-94 -67l-74 0c9,-58 65,-85 120,-83 75,2 112,53 112,114l0 151 -65 0 0 -13c-23,13 -48,20 -74,20 -48,0 -94,-29 -94,-79 0,-87 99,-94 165,-94 0,-7 -3,-14 -6,-20 -17,-32 -73,-30 -85,5l0 0zm719 -25c31,0 49,21 57,50l-113 0c7,-28 26,-50 57,-50l0 0zm0 -57c-169,0 -169,270 0,270 60,0 99,-34 117,-78l-73 0c-10,13 -24,22 -44,22 -31,0 -49,-21 -57,-50 60,0 121,0 181,0 14,-75 -28,-163 -124,-163l0 0zm-273 246c-2,66 -45,129 -127,129 -60,0 -99,-34 -117,-78l73 0c10,13 24,22 44,22 35,0 57,-29 57,-62l0 0c-16,8 -35,12 -57,12 -35,0 -63,-12 -84,-30 -29,-26 -44,-68 -43,-107 1,-67 43,-133 127,-133 22,0 40,4 57,12l0 -8 70 0c0,79 3,164 0,243l0 0z"/>
  <path class="fil62" d="M2825 1557c-23,2 -47,4 -70,5 18,43 56,76 115,76 60,0 99,-34 117,-78l-73 0c-10,13 -24,22 -44,22 -21,0 -36,-10 -45,-24l0 0zm436 -28c-22,1 -43,2 -65,3l0 24c-14,19 -38,28 -62,28 -18,0 -40,-6 -40,-27 0,-8 2,-14 6,-19 -24,1 -47,3 -71,4 -1,5 -1,11 -1,16 0,50 45,79 94,79 27,0 51,-6 74,-20l0 13 65 0 0 -103zm394 -16c-22,1 -44,1 -66,2l0 123 66 0 0 -125zm293 -7c-83,1 -168,3 -254,5 3,64 46,126 127,126 60,0 99,-34 117,-78l-73 0c-10,13 -24,22 -44,22 -31,0 -49,-22 -57,-50 60,0 121,0 181,0 1,-8 2,-17 2,-25l0 0zm-400 107c-2,66 -45,129 -127,129 -60,0 -99,-34 -117,-78l73 0c10,13 24,22 44,22 35,0 56,-29 56,-62l0 0c-16,8 -35,12 -56,12 -35,0 -63,-12 -84,-30 -22,-20 -36,-49 -41,-79 22,-1 45,-2 67,-3 3,14 8,27 18,38 10,11 23,18 40,18 28,0 45,-17 54,-41 2,-6 4,-13 5,-20 23,-1 46,-2 69,-3 0,33 0,66 -1,97l0 0z"/>
 </g>
</svg>
